<svg width="31" height="29" viewBox="0 0 31 29" fill="none" xmlns="http://www.w3.org/2000/svg">
<path d="M15.274 0.567334C15.3349 0.385223 15.5924 0.385222 15.6533 0.567333L19.1143 10.9191C19.1416 11.0007 19.218 11.0557 19.304 11.0557H30.4915C30.6866 11.0557 30.7663 11.3066 30.6069 11.4191L21.5659 17.8028C21.4938 17.8537 21.4636 17.9459 21.4916 18.0296L24.9472 28.3655C25.0085 28.5487 24.8 28.7037 24.6422 28.5922L15.579 22.1929C15.5099 22.1441 15.4174 22.1441 15.3483 22.1929L6.28512 28.5922C6.12727 28.7037 5.91881 28.5487 5.98008 28.3655L9.43573 18.0296C9.46372 17.9459 9.43352 17.8537 9.36141 17.8028L0.320429 11.4191C0.161033 11.3066 0.240663 11.0557 0.435788 11.0557H11.6233C11.7093 11.0557 11.7857 11.0007 11.813 10.9191L15.274 0.567334Z" fill="#1CE83F"/>
</svg>
