<svg width="16" height="14" viewBox="0 0 16 14" fill="none" xmlns="http://www.w3.org/2000/svg">
<path d="M8.36742 0.139746C8.39787 0.0486902 8.52666 0.0486901 8.5571 0.139746L10.2539 5.21481C10.2675 5.2556 10.3057 5.2831 10.3487 5.2831H15.8334C15.9309 5.2831 15.9708 5.40852 15.8911 5.46479L11.4588 8.59431C11.4228 8.61976 11.4077 8.66585 11.4217 8.7077L13.1158 13.7748C13.1464 13.8664 13.0422 13.9439 12.9633 13.8882L8.51994 10.7509C8.48536 10.7264 8.43916 10.7264 8.40458 10.7509L3.96126 13.8882C3.88233 13.9439 3.7781 13.8664 3.80874 13.7748L5.50285 8.7077C5.51685 8.66585 5.50175 8.61976 5.46569 8.59431L1.03346 5.46479C0.953766 5.40852 0.993581 5.2831 1.09114 5.2831H6.57581C6.61882 5.2831 6.65701 5.2556 6.67065 5.21481L8.36742 0.139746Z" fill="white"/>
</svg>
