<svg width="103" height="101" viewBox="0 0 103 101" fill="none" xmlns="http://www.w3.org/2000/svg">
<g clip-path="url(#clip0)">
<path d="M101.518 17.2678C87.4659 13.4979 73.3312 7.62777 60.642 0.292236C59.968 -0.0974119 59.1316 -0.0974119 58.4577 0.292236C45.4025 7.83851 32.0316 13.391 17.5806 17.2678C16.6471 17.518 16 18.3488 16 19.2967V40.79C16 62.9234 26.4284 77.5741 35.177 85.9669C44.5954 95.003 55.5665 100 59.5499 100C63.5328 100 74.5039 95.003 83.9224 85.9669C92.6708 77.5743 103.099 62.9236 103.099 40.79V19.2965C103.099 18.3488 102.451 17.518 101.518 17.2678ZM98.8018 40.7898C98.8018 61.4622 89.0752 75.1331 80.9151 82.9616C71.6532 91.8473 61.7507 95.7926 59.5499 95.7926C57.3491 95.7926 47.4459 91.8473 38.1839 82.9616C30.0239 75.1329 20.2969 61.4622 20.2969 40.7898V20.8934C34.1162 17.0516 46.9859 11.6901 59.5503 4.54106C71.8009 11.5004 85.3127 17.1285 98.8018 20.8926V40.7898Z" fill="#1C85E8"/>
<path d="M40.507 20.6581C40.0721 19.577 38.8248 19.046 37.7205 19.4719C33.8826 20.9526 29.9433 22.3155 26.0123 23.5229C25.1164 23.7983 24.5068 24.6108 24.5068 25.5299V33.6532C24.5068 34.8149 25.4689 35.7567 26.6552 35.7567C27.8415 35.7567 28.8035 34.8149 28.8035 33.6532V27.0672C32.3301 25.95 35.8528 24.7143 39.2955 23.386C40.3996 22.9604 40.942 21.7391 40.507 20.6581Z" fill="#1C85E8"/>
<path d="M44.588 21.057C44.8762 21.057 45.1689 21.0002 45.4495 20.8803L45.489 20.8635C46.576 20.3971 47.0655 19.1582 46.5891 18.0944C46.1124 17.0301 44.8399 16.5487 43.7542 17.0147L43.7195 17.0293C42.632 17.4944 42.1408 18.7322 42.6158 19.7967C42.9683 20.5869 43.7592 21.057 44.588 21.057Z" fill="#1C85E8"/>
<path d="M85.1464 67.8286C84.1536 67.1933 82.8223 67.4665 82.1726 68.439C80.4023 71.0921 78.3253 73.6327 75.9986 75.9896C74.0853 77.9275 72.0119 79.7337 69.8362 81.3577C68.8929 82.062 68.7114 83.3819 69.4305 84.306C69.8536 84.8487 70.4933 85.1343 71.1404 85.1343C71.5948 85.1343 72.0526 84.9938 72.4416 84.7032C74.7884 82.9511 77.0245 81.0032 79.0875 78.9138C81.6031 76.3661 83.8512 73.6161 85.7697 70.7402C86.419 69.7675 86.1396 68.464 85.1464 67.8286Z" fill="#1C85E8"/>
<path d="M64.8469 84.6566L64.7237 84.7277C63.697 85.31 63.3461 86.5967 63.9405 87.602C64.3389 88.2758 65.06 88.652 65.8018 88.652C66.1669 88.652 66.5375 88.5608 66.876 88.3684L67.0182 88.2865C68.0421 87.6994 68.386 86.4109 67.7864 85.4084C67.1864 84.4062 65.8702 84.0701 64.8469 84.6566Z" fill="#1C85E8"/>
<path d="M44.9055 45.7068C43.5864 44.415 41.832 43.7041 39.9661 43.7041C38.1002 43.7041 36.3456 44.4152 35.0259 45.7068C32.3025 48.374 32.3025 52.7138 35.0259 55.3808L47.7118 67.8015C49.0311 69.0929 50.7855 69.804 52.6516 69.804C54.5177 69.804 56.272 69.0929 57.5916 67.8011L84.0741 41.8711C86.7974 39.2033 86.7974 34.8641 84.0737 32.1979C82.7544 30.9061 81 30.1951 79.1337 30.1951C77.2676 30.1951 75.5132 30.9063 74.1937 32.1979L52.6514 53.2906L44.9055 45.7068ZM77.2321 35.1729C77.7398 34.6758 78.4154 34.4022 79.1339 34.4022C79.8528 34.4022 80.5279 34.6758 81.0359 35.1729C82.0842 36.1992 82.0842 37.8699 81.0355 38.8967L54.5534 64.8263C54.0457 65.3234 53.3701 65.597 52.6516 65.597C51.9331 65.597 51.2574 65.3234 50.7496 64.8263L38.0641 52.406C37.0155 51.3793 37.0155 49.7086 38.0637 48.6822C38.5716 48.1851 39.2472 47.9111 39.9659 47.9111C40.6846 47.9111 41.3599 48.1847 41.8675 48.6818L51.1322 57.7533C51.5353 58.1476 52.0815 58.3693 52.6514 58.3693C53.2213 58.3693 53.7674 58.1478 54.1702 57.7533L77.2321 35.1729Z" fill="#1C85E8"/>
</g>
<defs>
<clipPath id="clip0">
<rect width="102.132" height="100" fill="white" transform="translate(0.672852 0.686768)"/>
</clipPath>
</defs>
</svg>
