<svg width="16" height="16" viewBox="0 0 16 16" fill="none" xmlns="http://www.w3.org/2000/svg">
<ellipse cx="8" cy="7.92568" rx="8" ry="7.92568" fill="#D91D2C"/>
<path d="M3.16921 11H2.42221V4.997H4.83421C5.41622 4.997 5.87521 5.171 6.21121 5.519C6.54721 5.867 6.71521 6.296 6.71521 6.806C6.71521 7.316 6.54421 7.745 6.20222 8.093C5.86622 8.441 5.41022 8.615 4.83421 8.615H3.16921V11ZM4.74422 7.949C5.09821 7.949 5.38621 7.844 5.60821 7.634C5.83021 7.418 5.94121 7.142 5.94121 6.806C5.94121 6.47 5.83021 6.197 5.60821 5.987C5.38621 5.771 5.09821 5.663 4.74422 5.663H3.16921V7.949H4.74422ZM13.5814 11H12.8344V6.059L10.7914 11H10.4854L8.45144 6.059V11H7.70444V4.997H8.77544L10.6384 9.515L12.5104 4.997H13.5814V11Z" fill="white"/>
</svg>
